<svg xmlns="http://www.w3.org/2000/svg" width="35" height="35" viewBox="0 0 35 35">
  <g id="Group_140200" data-name="Group 140200" transform="translate(0 0.394)">
    <circle id="Ellipse_165" data-name="Ellipse 165" cx="17.5" cy="17.5" r="17.5" transform="translate(0 -0.394)" fill="#de1515"/>
    <g id="cheque" transform="translate(9.074 9.15)">
      <g id="Group_140204" data-name="Group 140204" transform="translate(7.924)">
        <path id="Path_34258" data-name="Path 34258" d="M35.754,12.792H31.4a.4.4,0,0,1,0-.792h4.358a.4.4,0,1,1,0,.792Z" transform="translate(-31 -12)" fill="#fff"/>
      </g>
      <g id="Group_140205" data-name="Group 140205" transform="translate(7.924 1.585)">
        <path id="Path_34259" data-name="Path 34259" d="M31.4,19.169a.4.4,0,0,1-.4-.4V16.4a.4.4,0,1,1,.792,0v2.377A.4.4,0,0,1,31.4,19.169Z" transform="translate(-31 -16)" fill="#fff"/>
      </g>
      <g id="Group_140206" data-name="Group 140206" transform="translate(12.282)">
        <path id="Path_34260" data-name="Path 34260" d="M43.189,13.585a.4.4,0,0,1-.4-.4.4.4,0,0,0-.4-.4.4.4,0,0,1,0-.792,1.19,1.19,0,0,1,1.189,1.189A.4.4,0,0,1,43.189,13.585Z" transform="translate(-42 -12)" fill="#fff"/>
      </g>
      <g id="Group_140207" data-name="Group 140207" transform="translate(13.074 0.792)">
        <path id="Path_34261" data-name="Path 34261" d="M44.4,17.962a.4.4,0,0,1-.4-.4V14.4a.4.4,0,1,1,.792,0v3.169A.4.4,0,0,1,44.4,17.962Z" transform="translate(-44 -14)" fill="#fff"/>
      </g>
      <g id="Group_140208" data-name="Group 140208" transform="translate(2.168 3.962)">
        <path id="Path_34262" data-name="Path 34262" d="M29.358,22.792H16.867a.4.4,0,1,1,0-.792H29.358a.4.4,0,0,1,0,.792Z" transform="translate(-16.471 -22)" fill="#fff"/>
      </g>
      <g id="Group_140209" data-name="Group 140209" transform="translate(2.168 1.585)">
        <path id="Path_34263" data-name="Path 34263" d="M29.358,16.792H16.867a.4.4,0,0,1,0-.792H29.358a.4.4,0,0,1,0,.792Z" transform="translate(-16.471 -16)" fill="#fff"/>
      </g>
      <g id="Group_140210" data-name="Group 140210" transform="translate(0 2.773)">
        <path id="Path_34264" data-name="Path 34264" d="M13.563,20.981a.393.393,0,0,1-.19-.049l-2.168-1.189a.4.4,0,1,1,.381-.695l2.168,1.189a.4.4,0,0,1-.191.743Z" transform="translate(-10.999 -19)" fill="#fff"/>
      </g>
      <g id="Group_140211" data-name="Group 140211" transform="translate(0 1.584)">
        <path id="Path_34265" data-name="Path 34265" d="M11.4,17.98a.4.4,0,0,1-.191-.744l2.168-1.189a.4.4,0,1,1,.381.695l-2.168,1.189A.389.389,0,0,1,11.4,17.98Z" transform="translate(-10.999 -15.999)" fill="#fff"/>
      </g>
      <g id="Group_140212" data-name="Group 140212" transform="translate(14.659 1.585)">
        <path id="Path_34266" data-name="Path 34266" d="M48.4,19.169a.4.4,0,0,1,0-.792.793.793,0,0,0,0-1.585.4.4,0,0,1,0-.792,1.585,1.585,0,0,1,0,3.169Z" transform="translate(-48 -16)" fill="#fff"/>
      </g>
      <g id="Group_140213" data-name="Group 140213" transform="translate(0 7.131)">
        <path id="Path_34267" data-name="Path 34267" d="M11.4,37.131a.4.4,0,0,1-.4-.4V30.4a.4.4,0,0,1,.792,0v6.339A.4.4,0,0,1,11.4,37.131Z" transform="translate(-11 -30)" fill="#fff"/>
      </g>
      <g id="Group_140214" data-name="Group 140214" transform="translate(15.848 7.131)">
        <path id="Path_34268" data-name="Path 34268" d="M51.4,37.131a.4.4,0,0,1-.4-.4V30.4a.4.4,0,0,1,.792,0v6.339A.4.4,0,0,1,51.4,37.131Z" transform="translate(-51 -30)" fill="#fff"/>
      </g>
      <g id="Group_140215" data-name="Group 140215" transform="translate(14.263 13.47)">
        <path id="Path_34269" data-name="Path 34269" d="M47.4,48.377a.4.4,0,0,1,0-.792A1.19,1.19,0,0,0,48.585,46.4a.4.4,0,1,1,.792,0A1.983,1.983,0,0,1,47.4,48.377Z" transform="translate(-47 -46)" fill="#fff"/>
      </g>
      <g id="Group_140216" data-name="Group 140216" transform="translate(1.585 15.055)">
        <path id="Path_34270" data-name="Path 34270" d="M28.074,50.792H15.4a.4.4,0,0,1,0-.792H28.074a.4.4,0,0,1,0,.792Z" transform="translate(-15 -50)" fill="#fff"/>
      </g>
      <g id="Group_140217" data-name="Group 140217" transform="translate(0 13.47)">
        <path id="Path_34271" data-name="Path 34271" d="M12.981,48.377A1.983,1.983,0,0,1,11,46.4a.4.4,0,1,1,.792,0,1.19,1.19,0,0,0,1.189,1.189.4.4,0,0,1,0,.792Z" transform="translate(-11 -46)" fill="#fff"/>
      </g>
      <g id="Group_140218" data-name="Group 140218" transform="translate(7.132 12.678)">
        <path id="Path_34272" data-name="Path 34272" d="M35.735,44.792H29.4a.4.4,0,1,1,0-.792h6.339a.4.4,0,1,1,0,.792Z" transform="translate(-29 -44)" fill="#fff"/>
      </g>
      <g id="Group_140219" data-name="Group 140219" transform="translate(7.132 10.301)">
        <path id="Path_34273" data-name="Path 34273" d="M35.735,38.792H29.4a.4.4,0,0,1,0-.792h6.339a.4.4,0,1,1,0,.792Z" transform="translate(-29 -38)" fill="#fff"/>
      </g>
      <g id="Group_140220" data-name="Group 140220" transform="translate(7.132 7.924)">
        <path id="Path_34274" data-name="Path 34274" d="M35.735,32.792H29.4a.4.4,0,0,1,0-.792h6.339a.4.4,0,1,1,0,.792Z" transform="translate(-29 -32)" fill="#fff"/>
      </g>
      <g id="Group_140230" data-name="Group 140230" transform="translate(0 5.547)">
        <path id="Path_34284" data-name="Path 34284" d="M11.4,28.377a.4.4,0,0,1-.4-.4A1.983,1.983,0,0,1,12.981,26a.4.4,0,0,1,0,.792,1.19,1.19,0,0,0-1.189,1.189A.4.4,0,0,1,11.4,28.377Z" transform="translate(-11 -26)" fill="#fff"/>
      </g>
      <g id="Group_140231" data-name="Group 140231" transform="translate(1.585 5.547)">
        <path id="Path_34285" data-name="Path 34285" d="M28.074,26.792H15.4a.4.4,0,0,1,0-.792H28.074a.4.4,0,0,1,0,.792Z" transform="translate(-15 -26)" fill="#fff"/>
      </g>
      <g id="Group_140232" data-name="Group 140232" transform="translate(14.263 5.547)">
        <path id="Path_34286" data-name="Path 34286" d="M48.981,28.377a.4.4,0,0,1-.4-.4A1.19,1.19,0,0,0,47.4,26.792a.4.4,0,1,1,0-.792,1.983,1.983,0,0,1,1.981,1.981A.4.4,0,0,1,48.981,28.377Z" transform="translate(-47 -26)" fill="#fff"/>
      </g>
      <g id="Group_140235" data-name="Group 140235" transform="translate(2.179 7.726)">
        <g id="Group_140234" data-name="Group 140234" transform="translate(0 0)">
          <g id="Group_934" data-name="Group 934">
            <path id="Path_3634" data-name="Path 3634" d="M136.443,33.8a.3.3,0,0,1,.187.068c.375.3.966.824,1.538,1.332.479.426.932.827,1.174,1.022a.315.315,0,0,1,0,.488l-2.663,2.411a.3.3,0,0,1-.192.07.315.315,0,0,1-.24-.114.309.309,0,0,1-.065-.255v0l.462-2.308a.137.137,0,0,0,0-.047l-.484-2.309a.3.3,0,0,1,.061-.251A.282.282,0,0,1,136.443,33.8Zm.129,5.183,2.663-2.411a.136.136,0,0,0,.051-.107.135.135,0,0,0-.051-.105c-.247-.2-.7-.6-1.181-1.027-.57-.506-1.159-1.03-1.53-1.326a.128.128,0,0,0-.079-.03.108.108,0,0,0-.084.04.124.124,0,0,0-.024.1l.484,2.309a.317.317,0,0,1,0,.112v0l-.462,2.308a.131.131,0,0,0,.028.109.139.139,0,0,0,.106.051A.128.128,0,0,0,136.572,38.98Z" transform="translate(-135.96 -33.599)" fill="#fff"/>
            <path id="Path_3634_-_Outline" data-name="Path 3634 - Outline" d="M136.141,33.3a.5.5,0,0,1,.311.111c.379.3.972.829,1.545,1.338.477.424.928.824,1.167,1.015a.513.513,0,0,1,.01.792l-2.66,2.408-.008.007a.5.5,0,0,1-.317.114.515.515,0,0,1-.393-.186.5.5,0,0,1-.108-.416v-.006l.459-2.292-.481-2.292v-.005a.5.5,0,0,1,.1-.412A.479.479,0,0,1,136.141,33.3Zm2.611,2.867c-.259-.212-.684-.59-1.132-.988-.483-.429-.981-.871-1.345-1.174l.437,2.083v.006a.515.515,0,0,1,0,.182v.006l-.424,2.116Z" transform="translate(-135.658 -33.297)" fill="#fff"/>
          </g>
          <g id="Group_938" data-name="Group 938" transform="translate(0.023 2.55)">
            <path id="Path_3634-2" data-name="Path 3634" d="M138.838,56.526a5.548,5.548,0,0,1,.735.012l.054.017.007.057a.229.229,0,0,1-.019.139l0,.005a.337.337,0,0,1-.115.153L136.859,59.3a.3.3,0,0,1-.192.07.315.315,0,0,1-.24-.114.309.309,0,0,1-.065-.255v0l.462-2.308a.14.14,0,0,0,0-.048l-.018-.1h.1C136.921,56.533,138.065,56.526,138.838,56.526Zm.605.18c-.089,0-.264,0-.605,0-.648,0-1.558.006-1.84.007v.01l-.462,2.308a.131.131,0,0,0,.028.109.139.139,0,0,0,.106.051.129.129,0,0,0,.081-.029l2.647-2.395.005,0A.158.158,0,0,0,139.443,56.706Z" transform="translate(-136.158 -56.327)" fill="#fff"/>
            <path id="Path_3634_-_Outline-2" data-name="Path 3634 - Outline" d="M138.536,56.026a3.729,3.729,0,0,1,.794.021l.054.017a.2.2,0,0,1,.138.165l.007.057a.425.425,0,0,1-.032.238l0,0a.541.541,0,0,1-.174.232l-2.63,2.38-.008.007a.5.5,0,0,1-.317.114.515.515,0,0,1-.393-.186.5.5,0,0,1-.108-.416v-.006l.459-2.293-.017-.093a.2.2,0,0,1,.194-.233h.1C136.617,56.033,137.756,56.026,138.536,56.026Zm.111.573h-.111c-.554,0-1.3,0-1.677.006l-.394,1.968Z" transform="translate(-135.856 -56.026)" fill="#fff"/>
          </g>
        </g>
      </g>
    </g>
  </g>
</svg>
