<svg xmlns="http://www.w3.org/2000/svg" width="11.496" height="22.757" viewBox="0 0 11.496 22.757">
  <g id="Component_2_3" data-name="Component 2 – 3" transform="translate(0)">
    <path id="facebook_2_" data-name="facebook (2)" d="M127.049,12.121h2.495V22.39a.367.367,0,0,0,.367.367h4.23a.367.367,0,0,0,.367-.367V12.169h2.868a.367.367,0,0,0,.365-.325l.436-3.781a.367.367,0,0,0-.365-.409h-3.3V5.284c0-.714.385-1.077,1.143-1.077h2.16a.367.367,0,0,0,.367-.367V.37A.367.367,0,0,0,137.811,0h-2.976c-.021,0-.068,0-.136,0a5.7,5.7,0,0,0-3.73,1.406,3.911,3.911,0,0,0-1.3,3.477V7.654h-2.619a.367.367,0,0,0-.367.367v3.733A.367.367,0,0,0,127.049,12.121Z" transform="translate(-126.682)" fill="#fff"/>
  </g>
</svg>
