<svg id="Layer_2" data-name="Layer 2" xmlns="http://www.w3.org/2000/svg" width="21.189" height="26.968" viewBox="0 0 21.189 26.968">
  <path id="Path_34184" data-name="Path 34184" d="M15.595,28.968a.963.963,0,0,0,.6-.212c.366-.327,10-8.09,10-16.162A10.595,10.595,0,1,0,5,12.595c0,8.071,9.631,15.834,10,16.162a.963.963,0,0,0,.6.212ZM6.926,12.595a8.668,8.668,0,0,1,17.337,0c0,6.068-6.617,12.338-8.668,14.149C13.543,24.932,6.926,18.662,6.926,12.595Z" transform="translate(-5 -2)" fill="#fff"/>
  <path id="Path_34185" data-name="Path 34185" d="M20.631,12.816a4.816,4.816,0,1,0-4.816,4.816,4.816,4.816,0,0,0,4.816-4.816Zm-7.705,0a2.889,2.889,0,1,1,2.889,2.889,2.889,2.889,0,0,1-2.889-2.889Z" transform="translate(-5.221 -2.221)" fill="#fff"/>
</svg>
