<svg xmlns="http://www.w3.org/2000/svg" width="25.308" height="17.72" viewBox="0 0 25.308 17.72">
  <path id="youtube" d="M24.788-3.309A3.171,3.171,0,0,0,22.557-5.54c-1.98-.542-9.9-.542-9.9-.542s-7.922,0-9.9.521A3.235,3.235,0,0,0,.522-3.309,33.409,33.409,0,0,0,0,2.778,33.286,33.286,0,0,0,.522,8.865,3.171,3.171,0,0,0,2.753,11.1c2,.542,9.9.542,9.9.542s7.922,0,9.9-.521a3.171,3.171,0,0,0,2.231-2.231A33.419,33.419,0,0,0,25.309,2.8a31.714,31.714,0,0,0-.521-6.108ZM10.132,6.572V-1.016L16.72,2.778Zm0,0" transform="translate(-0.001 6.082)" fill="#fff"/>
</svg>
