<svg xmlns="http://www.w3.org/2000/svg" width="40.136" height="45.666" viewBox="0 0 40.136 45.666">
  <g id="location_1_" data-name="location (1)" transform="translate(0)">
    <g id="Group_139380" data-name="Group 139380">
      <g id="Group_139379" data-name="Group 139379">
        <path id="Path_34119" data-name="Path 34119" d="M58.692,30.172C63.551,22.547,62.94,23.5,63.08,23.3a14.607,14.607,0,0,0,2.7-8.494,14.717,14.717,0,1,0-26.651,8.6l4.311,6.764C38.835,30.881,31,32.991,31,37.639c0,1.694,1.106,4.109,6.374,5.99a42.228,42.228,0,0,0,13.694,2.037c9.635,0,20.068-2.718,20.068-8.027C71.136,32.99,63.31,30.882,58.692,30.172ZM41.368,21.936q-.022-.035-.046-.068a12.041,12.041,0,1,1,19.588-.135c-.129.17.544-.875-9.843,15.423Zm9.7,21.054c-10.524,0-17.392-3.093-17.392-5.351,0-1.518,3.529-4.013,11.349-4.986l4.915,7.712a1.338,1.338,0,0,0,2.256,0l4.915-7.712c7.82.973,11.35,3.468,11.35,4.986C68.46,39.878,61.654,42.99,51.068,42.99Z" transform="translate(-31)" fill="#de1515"/>
      </g>
    </g>
    <g id="Group_139382" data-name="Group 139382" transform="translate(13.379 8.116)">
      <g id="Group_139381" data-name="Group 139381">
        <path id="Path_34120" data-name="Path 34120" d="M187.689,91a6.689,6.689,0,1,0,6.689,6.689A6.7,6.7,0,0,0,187.689,91Zm0,10.7a4.014,4.014,0,1,1,4.014-4.014A4.018,4.018,0,0,1,187.689,101.7Z" transform="translate(-181 -91)" fill="#de1515"/>
      </g>
    </g>
  </g>
</svg>
