<svg xmlns="http://www.w3.org/2000/svg" width="45.807" height="45.807" viewBox="0 0 45.807 45.807">
  <g id="speedometer" transform="translate(0.1 0.1)">
    <path id="Path_34121" data-name="Path 34121" d="M32.643,15.171,27.014,20.8a4.38,4.38,0,0,0-6.05,6.05l-2.529,2.529a.95.95,0,0,0,1.344,1.344l2.53-2.53a4.38,4.38,0,0,0,6.048-6.048l5.631-5.631a.95.95,0,0,0-1.344-1.344ZM26.418,26.255a2.548,2.548,0,0,1-3.519,0,2.488,2.488,0,1,1,3.519,0Z" transform="translate(-1.855 -1.692)" fill="#de1515" stroke="#de1515" stroke-width="0.2"/>
    <path id="Path_34122" data-name="Path 34122" d="M23.8,1a22.8,22.8,0,1,0,22.8,22.8A22.842,22.842,0,0,0,23.8,1Zm0,43.707A20.879,20.879,0,0,1,7.162,36.434H40.446A20.879,20.879,0,0,1,23.8,44.707ZM41.735,34.533H5.873A20.834,20.834,0,0,1,3.485,18.906L6.5,19.78a.95.95,0,1,0,.529-1.825l-3.016-.874A20.893,20.893,0,0,1,7.7,10.5l2.322,2.1A.951.951,0,0,0,11.3,11.191l-2.322-2.1a21,21,0,0,1,6.19-4.311l1.166,2.912A.95.95,0,0,0,18.1,6.983L16.928,4.068a20.766,20.766,0,0,1,5.925-1.143V6.066a.95.95,0,1,0,1.9,0V2.924a20.755,20.755,0,0,1,7.353,1.7L30.729,7.446a.95.95,0,0,0,1.707.833l1.377-2.821a21.038,21.038,0,0,1,5.855,4.758L37.2,12.142a.95.95,0,0,0,1.169,1.5l2.468-1.927a20.816,20.816,0,0,1,3.2,6.835l-3.078.652a.95.95,0,0,0,.393,1.859l3.074-.651a20.822,20.822,0,0,1-2.692,14.126Z" transform="translate(-1 -1)" fill="#de1515" stroke="#de1515" stroke-width="0.2"/>
  </g>
</svg>
