<svg xmlns="http://www.w3.org/2000/svg" width="44.314" height="50.455" viewBox="0 0 44.314 50.455">
  <g id="_08db6d318345e0d1990343bc570cff9c" data-name="08db6d318345e0d1990343bc570cff9c" transform="translate(0.251 0.251)">
    <path id="Path_6921" data-name="Path 6921" d="M37.625,25.384,26.143,26.475l-7.407-8.838a.872.872,0,0,0-1.52.371L14.7,29.262l-10.7,4.315a.872.872,0,0,0-.118,1.56L13.818,41l.8,11.507a.873.873,0,0,0,1.447.594l8.65-7.632,11.19,2.8a.872.872,0,0,0,1.012-1.194L32.329,36.5l6.12-9.772a.872.872,0,0,0-.823-1.332Zm-7.02,10.575a.872.872,0,0,0-.061.81l4.065,9.38-9.92-2.478a.873.873,0,0,0-.785.192l-7.671,6.765-.706-10.2a.872.872,0,0,0-.427-.691l-8.8-5.2,9.484-3.823a.872.872,0,0,0,.523-.619l2.227-9.979L25.1,27.95a.866.866,0,0,0,.751.309l10.179-.967ZM46.957,11.38a.872.872,0,0,0-.379-1.518l-5.11-1.107L39.484,3.921a.872.872,0,0,0-1.561-.108L35.291,8.327l-5.212.393a.872.872,0,0,0-.585,1.451l3.483,3.9-1.237,5.08a.872.872,0,0,0,1.2,1l4.783-2.107,4.45,2.747a.872.872,0,0,0,1.327-.831l-.523-5.2Zm-5.463,2.348a.872.872,0,0,0-.3.753l.394,3.9-3.335-2.059a.872.872,0,0,0-.811-.056l-3.581,1.579.922-3.8a.872.872,0,0,0-.2-.785l-2.61-2.923,3.907-.305a.872.872,0,0,0,.688-.43l1.973-3.383,1.483,3.625a.872.872,0,0,0,.622.523l3.83.83Z" transform="translate(-3.459 -3.38)" fill="#de1515" stroke="#de1515" stroke-width="0.5"/>
  </g>
</svg>
