<svg id="happy" xmlns="http://www.w3.org/2000/svg" width="45.666" height="45.666" viewBox="0 0 45.666 45.666">
  <path id="Path_34115" data-name="Path 34115" d="M22.833,0A22.833,22.833,0,1,0,45.666,22.833,22.859,22.859,0,0,0,22.833,0Zm0,42.99A20.157,20.157,0,1,1,42.99,22.833,20.18,20.18,0,0,1,22.833,42.99Z" fill="#de1515"/>
  <path id="Path_34116" data-name="Path 34116" d="M107.108,158.816a1.338,1.338,0,1,0,2.532-.867,5.842,5.842,0,0,0-11.055,0,1.338,1.338,0,1,0,2.532.865,3.166,3.166,0,0,1,5.992,0Z" transform="translate(-89.725 -140.265)" fill="#de1515"/>
  <path id="Path_34117" data-name="Path 34117" d="M293.6,154a5.841,5.841,0,0,0-5.528,3.954,1.338,1.338,0,1,0,2.532.865,3.166,3.166,0,0,1,5.992,0,1.338,1.338,0,0,0,2.532-.867A5.842,5.842,0,0,0,293.6,154Z" transform="translate(-262.309 -140.264)" fill="#de1515"/>
  <path id="Path_34118" data-name="Path 34118" d="M169.028,316.685a1.338,1.338,0,0,0-1.834.465,8.027,8.027,0,0,1-13.782.017,1.338,1.338,0,0,0-2.3,1.375,10.7,10.7,0,0,0,18.376-.022A1.338,1.338,0,0,0,169.028,316.685Z" transform="translate(-137.465 -288.268)" fill="#de1515"/>
</svg>
