<svg id="Group_140200" data-name="Group 140200" xmlns="http://www.w3.org/2000/svg" width="35" height="35" viewBox="0 0 35 35">
  <circle id="Ellipse_165" data-name="Ellipse 165" cx="17.5" cy="17.5" r="17.5" fill="#de1515"/>
  <g id="Group_3008" data-name="Group 3008" transform="translate(8.697 8.697)">
    <g id="_4ed3d25f5a20100efbeb33963636822c" data-name="4ed3d25f5a20100efbeb33963636822c">
      <path id="Path_8491" data-name="Path 8491" d="M12.3,13.643a.346.346,0,0,0-.491,0L10.39,15.063c-.177.177-1.085-.07-2.028-1.012S7.168,12.2,7.349,12.022L8.769,10.6a.344.344,0,0,0,.1-.247.359.359,0,0,0-.1-.247l-4.1-4.095a.346.346,0,0,0-.491,0L3.119,7.071c-.772.772-.818,2.147-.129,3.865a15.8,15.8,0,0,0,3.49,4.992c2.508,2.508,5.264,3.97,7.167,3.97a2.313,2.313,0,0,0,1.694-.609L16.4,18.232a.344.344,0,0,0,.1-.247.359.359,0,0,0-.1-.247ZM14.847,18.8c-1.089,1.089-4.516,0-7.877-3.361a15.1,15.1,0,0,1-3.336-4.759c-.571-1.423-.578-2.561-.024-3.114l.811-.811,3.6,3.6L6.852,11.528c-.651.651.038,2.039,1.012,3.013s2.362,1.663,3.013,1.012l1.172-1.172,3.6,3.6ZM11.009,2.51a.348.348,0,0,0,0,.7A8.2,8.2,0,0,1,19.2,11.4a.348.348,0,0,0,.7,0A8.9,8.9,0,0,0,11.009,2.51Z" transform="translate(-2.38 -2.386)" fill="#fff"/>
      <path id="Path_8491_-_Outline" data-name="Path 8491 - Outline" d="M13.671,20.047c-2,0-4.784-1.535-7.255-4.006A15.925,15.925,0,0,1,2.9,11.007c-.709-1.769-.654-3.19.156-4L4.113,5.95a.471.471,0,0,1,.666,0l4.1,4.095a.485.485,0,0,1,.137.335.47.47,0,0,1-.137.335L7.461,12.134c-.1.111.1.944,1.012,1.853a3.127,3.127,0,0,0,1.756,1.029.172.172,0,0,0,.1-.017l1.419-1.419a.471.471,0,0,1,.666,0l4.1,4.095a.485.485,0,0,1,.137.335.47.47,0,0,1-.137.335L15.453,19.4A2.419,2.419,0,0,1,13.671,20.047ZM4.446,6.06a.221.221,0,0,0-.157.065L3.231,7.183c-.735.735-.771,2.06-.1,3.731a15.674,15.674,0,0,0,3.462,4.951C9.018,18.291,11.73,19.8,13.671,19.8a2.181,2.181,0,0,0,1.606-.572l1.058-1.058a.22.22,0,0,0,.065-.159.235.235,0,0,0-.067-.162l-4.1-4.092a.228.228,0,0,0-.315,0L10.5,15.175a.372.372,0,0,1-.272.09,3.3,3.3,0,0,1-1.932-1.1,3.337,3.337,0,0,1-1.1-1.934.368.368,0,0,1,.092-.271l1.419-1.419a.22.22,0,0,0,.064-.159.236.236,0,0,0-.067-.162L4.6,6.126A.221.221,0,0,0,4.446,6.06Zm9.216,13.291c-1.793,0-4.445-1.493-6.755-3.8a15.228,15.228,0,0,1-3.364-4.8c-.59-1.472-.589-2.656,0-3.248l.9-.9,3.78,3.78-1.26,1.26c-.571.571.066,1.891,1.012,2.837a3.737,3.737,0,0,0,2.253,1.231.793.793,0,0,0,.584-.219l1.26-1.26,3.78,3.78-.895.9A1.789,1.789,0,0,1,13.662,19.351ZM4.444,6.951l-.723.723c-.518.518-.5,1.6.052,2.98a14.977,14.977,0,0,0,3.309,4.718c2.267,2.267,4.849,3.731,6.58,3.731a1.552,1.552,0,0,0,1.121-.371l.719-.723-3.429-3.429-1.085,1.085a1.033,1.033,0,0,1-.76.292,3.98,3.98,0,0,1-2.428-1.3c-1.044-1.044-1.727-2.474-1.012-3.189L7.873,10.38ZM19.575,11.9a.473.473,0,0,1-.472-.472,8.078,8.078,0,0,0-8.069-8.069.472.472,0,0,1,0-.944,9.024,9.024,0,0,1,9.013,9.013A.473.473,0,0,1,19.575,11.9ZM11.033,2.658a.224.224,0,0,0,0,.447,8.327,8.327,0,0,1,8.318,8.318.224.224,0,1,0,.447,0A8.775,8.775,0,0,0,11.033,2.658Z" transform="translate(-2.405 -2.41)" fill="#fff"/>
      <path id="Path_8492" data-name="Path 8492" d="M26.3,9.52a.348.348,0,0,0,0,.7,5.757,5.757,0,0,1,5.751,5.751.348.348,0,0,0,.7,0A6.453,6.453,0,0,0,26.3,9.52Z" transform="translate(-17.669 -6.957)" fill="#fff"/>
      <path id="Path_8492_-_Outline" data-name="Path 8492 - Outline" d="M26.322,9.42a6.577,6.577,0,0,1,6.571,6.571.472.472,0,0,1-.944,0,5.633,5.633,0,0,0-5.627-5.627.472.472,0,1,1,0-.944Zm6.1,6.795a.224.224,0,0,0,.224-.224,6.329,6.329,0,0,0-6.323-6.323.224.224,0,1,0,0,.447A5.882,5.882,0,0,1,32.2,15.991.224.224,0,0,0,32.421,16.215Z" transform="translate(-17.693 -6.981)" fill="#fff"/>
      <path id="Path_8493" data-name="Path 8493" d="M29.61,20.538a.348.348,0,0,0,.7,0A4.013,4.013,0,0,0,26.3,16.53a.348.348,0,1,0,0,.7A3.32,3.32,0,0,1,29.61,20.538Z" transform="translate(-17.669 -11.528)" fill="#fff"/>
      <path id="Path_8493_-_Outline" data-name="Path 8493 - Outline" d="M29.982,21.034a.473.473,0,0,1-.472-.472,3.2,3.2,0,0,0-3.188-3.188.472.472,0,0,1,0-.944,4.137,4.137,0,0,1,4.132,4.132A.473.473,0,0,1,29.982,21.034Zm-3.66-4.356a.224.224,0,0,0,0,.447,3.445,3.445,0,0,1,3.436,3.436.224.224,0,0,0,.447,0A3.888,3.888,0,0,0,26.322,16.678Z" transform="translate(-17.693 -11.552)" fill="#fff"/>
    </g>
  </g>
</svg>
