<svg xmlns="http://www.w3.org/2000/svg" width="35" height="35" viewBox="0 0 35 35">
  <g id="Group_140200" data-name="Group 140200" transform="translate(0 0.394)">
    <circle id="Ellipse_165" data-name="Ellipse 165" cx="17.5" cy="17.5" r="17.5" transform="translate(0 -0.394)" fill="#de1515"/>
    <g id="business-and-finance" transform="translate(7.455 7.455)">
      <path id="Path_34287" data-name="Path 34287" d="M19.314,103.043a1.647,1.647,0,0,0-1.981-1.271l-2.017.462v-.824a7.966,7.966,0,0,0,1.125-1.333,7.816,7.816,0,0,0,1.1-2.6,7.972,7.972,0,0,0,.015-3.384.378.378,0,0,0-.739.158,7.207,7.207,0,0,1-.014,3.061,7.063,7.063,0,0,1-1,2.351,6.726,6.726,0,0,1-.494.652V96.123a.378.378,0,0,0-.378-.378h-2.99V91.71a.378.378,0,0,0-.377-.378L8.205,91.32h0a.378.378,0,0,0-.378.378v2.1H4.836a.378.378,0,0,0-.378.378v3.742H3.616V97.4a.378.378,0,0,0-.378-.378H2.851A7.153,7.153,0,0,1,3.16,93.32c.07-.194.15-.388.238-.575a.378.378,0,1,0-.685-.319c-.1.208-.185.422-.263.637a7.9,7.9,0,0,0-.365,3.964H.378A.378.378,0,0,0,0,97.4v6.643a.378.378,0,0,0,.378.378H3.239a.378.378,0,0,0,.378-.378v-.359H5.038l5.759,2.259a4.549,4.549,0,0,0,2.8.175l4.514-1.147A1.644,1.644,0,0,0,19.314,103.043ZM14.561,96.5v5.906l-1.01.231c-.109.025-.218.044-.329.06a3.836,3.836,0,0,1-1.267-.037h-.005v-.573a1.75,1.75,0,0,0,.233-1.472,1.7,1.7,0,0,0-.178-.4q-.026-.042-.054-.082h0V96.5h2.612ZM8.582,92.077l2.612.009v7.448l-1.46-.6-1.152-.477ZM5.214,94.553H7.826V98.14l-.469-.194a.377.377,0,0,0-.145-.029h-2ZM2.861,103.67H.756V97.783h2.1Zm15.06.572-4.514,1.147a3.8,3.8,0,0,1-2.335-.146l-5.825-2.285a.377.377,0,0,0-.138-.026H3.616V98.674H7.137l2.445,1.012,1.338.554a.945.945,0,0,1,.506,1.225,1.081,1.081,0,0,1-.151.266.974.974,0,0,1-.991.342l-.009,0-.065-.019-2.543-.978-.032-.012a.378.378,0,1,0-.271.705l2.527.973.066.024.84.323a6.942,6.942,0,0,0,.77.262,4.585,4.585,0,0,0,2.152.027l1.3-.3h0l2.475-.567a.892.892,0,0,1,.419,1.733Zm0,0" transform="translate(0 -87.869)" fill="#fff"/>
      <path id="Path_34288" data-name="Path 34288" d="M118.255,2.688a.376.376,0,0,0,.253-.1A7.1,7.1,0,0,1,123.755.771a7.088,7.088,0,0,1,2.06.449.378.378,0,1,0,.269-.706,7.842,7.842,0,0,0-2.28-.5A7.858,7.858,0,0,0,118,2.03a.378.378,0,0,0,.253.658Zm0,0" transform="translate(-113.422 0)" fill="#fff"/>
      <path id="Path_34289" data-name="Path 34289" d="M351.576,34.482a.378.378,0,0,0,.533-.037l3.109-3.579a.378.378,0,1,0-.57-.5l-3.109,3.579A.378.378,0,0,0,351.576,34.482Zm0,0" transform="translate(-338.164 -29.097)" fill="#fff"/>
      <path id="Path_34290" data-name="Path 34290" d="M404.461,99.738a.949.949,0,1,0,.949.949A.95.95,0,0,0,404.461,99.738Zm0,1.142a.193.193,0,1,1,.193-.193A.193.193,0,0,1,404.461,100.88Zm0,0" transform="translate(-388.262 -95.969)" fill="#fff"/>
      <path id="Path_34291" data-name="Path 34291" d="M348.929,29.163a.949.949,0,1,0-.949-.949A.95.95,0,0,0,348.929,29.163Zm0-1.142a.193.193,0,1,1-.193.193A.193.193,0,0,1,348.929,28.021Zm0,0" transform="translate(-334.83 -26.235)" fill="#fff"/>
      <path id="Path_34292" data-name="Path 34292" d="M91.609,81.347a.378.378,0,1,0,.139-.459A.381.381,0,0,0,91.609,81.347Zm0,0" transform="translate(-88.12 -77.771)" fill="#fff"/>
    </g>
  </g>
</svg>
