<svg xmlns="http://www.w3.org/2000/svg" width="20.7" height="20.7" viewBox="0 0 20.7 20.7">
  <g id="_-Product-Icons" data-name="ðŸ”-Product-Icons" transform="translate(-2.65 -2.65)">
    <g id="ic_fluent_note_24_regular" transform="translate(3 3)">
      <path id="_-Color" data-name="ðŸŽ¨-Color" d="M19.389,3A3.611,3.611,0,0,1,23,6.611v7.643a2.5,2.5,0,0,1-.732,1.768l-6.246,6.246A2.5,2.5,0,0,1,14.254,23H6.611A3.611,3.611,0,0,1,3,19.389V6.611A3.611,3.611,0,0,1,6.611,3Zm0,1.667H6.611A1.944,1.944,0,0,0,4.667,6.611V19.389a1.944,1.944,0,0,0,1.944,1.944h7.5V17.722a3.611,3.611,0,0,1,3.406-3.605l.2-.006h3.611v-7.5A1.944,1.944,0,0,0,19.389,4.667Zm.766,11.111H17.722a1.945,1.945,0,0,0-1.938,1.785l-.006.159v2.432Z" transform="translate(-3 -3)" fill="#212121" stroke="#fff" stroke-width="0.7"/>
    </g>
  </g>
</svg>
