<svg id="instagram_1_" data-name="instagram (1)" xmlns="http://www.w3.org/2000/svg" width="23.123" height="23.123" viewBox="0 0 23.123 23.123">
  <path id="Path_33042" data-name="Path 33042" d="M11.779,5.838a5.933,5.933,0,1,0,5.933,5.933A5.932,5.932,0,0,0,11.779,5.838Zm0,9.784a3.851,3.851,0,1,1,3.851-3.851A3.85,3.85,0,0,1,11.779,15.622Z" transform="translate(-0.213 -0.214)" fill="#fff"/>
  <path id="Path_33043" data-name="Path 33043" d="M16.329.073c-2.127-.1-7.4-.094-9.526,0a6.91,6.91,0,0,0-4.852,1.87C-.273,4.167.012,7.163.012,11.558c0,4.5-.25,7.424,1.939,9.614,2.232,2.231,5.272,1.939,9.614,1.939,4.455,0,5.993,0,7.568-.607,2.142-.831,3.758-2.746,3.916-6.184.1-2.128.094-7.4,0-9.526C22.859,2.735,20.681.274,16.329.073ZM19.7,19.7c-1.458,1.458-3.48,1.328-8.159,1.328-4.817,0-6.749.071-8.159-1.342-1.623-1.616-1.33-4.21-1.33-8.144,0-5.323-.546-9.157,4.8-9.43,1.227-.043,1.589-.058,4.679-.058l.043.029c5.134,0,9.162-.538,9.4,4.8.055,1.219.067,1.585.067,4.67,0,4.761.09,6.7-1.343,8.144Z" transform="translate(0 -0.001)" fill="#fff"/>
  <circle id="Ellipse_33" data-name="Ellipse 33" cx="1.386" cy="1.386" r="1.386" transform="translate(16.347 4.004)" fill="#fff"/>
</svg>
