<svg xmlns="http://www.w3.org/2000/svg" width="19.999" height="20" viewBox="0 0 19.999 20">
  <g id="Group_139733" data-name="Group 139733" transform="translate(-423.685 -2208)">
    <path id="Path_13071" data-name="Path 13071" d="M12,6.865A5.135,5.135,0,1,0,17.135,12,5.135,5.135,0,0,0,12,6.865Zm0,8.468A3.334,3.334,0,1,1,15.334,12,3.334,3.334,0,0,1,12,15.333Z" transform="translate(422.003 2206)" fill="#011553"/>
    <path id="Path_13074" data-name="Path 13074" d="M8.023,6.865A1.157,1.157,0,1,0,9.18,8.022,1.157,1.157,0,0,0,8.023,6.865Z" transform="translate(431.116 2204.598)" fill="#011553"/>
    <path id="Path_13072" data-name="Path 13072" d="M21.94,7.877a7.332,7.332,0,0,0-.464-2.427,4.918,4.918,0,0,0-1.153-1.771,4.894,4.894,0,0,0-1.771-1.153,7.323,7.323,0,0,0-2.427-.464C15.058,2.012,14.717,2,12,2s-3.057.011-4.124.061a7.333,7.333,0,0,0-2.427.464A4.905,4.905,0,0,0,3.679,3.678,4.885,4.885,0,0,0,2.525,5.45a7.333,7.333,0,0,0-.464,2.427C2.012,8.943,2,9.284,2,12s.011,3.057.061,4.123a7.333,7.333,0,0,0,.464,2.427,4.888,4.888,0,0,0,1.153,1.771A4.917,4.917,0,0,0,5.45,21.475a7.339,7.339,0,0,0,2.427.464C8.944,21.988,9.285,22,12,22s3.057-.011,4.123-.061a7.333,7.333,0,0,0,2.427-.464,5.112,5.112,0,0,0,2.925-2.925,7.316,7.316,0,0,0,.464-2.427c.049-1.067.06-1.407.06-4.123S21.988,8.943,21.94,7.877Zm-1.8,8.164A5.549,5.549,0,0,1,19.8,17.9a3.311,3.311,0,0,1-1.9,1.9,5.522,5.522,0,0,1-1.857.344c-1.054.048-1.371.058-4.041.058s-2.986-.01-4.04-.058A5.526,5.526,0,0,1,6.1,19.8a3.108,3.108,0,0,1-1.15-.748A3.085,3.085,0,0,1,4.205,17.9a5.521,5.521,0,0,1-.344-1.857C3.813,14.987,3.8,14.67,3.8,12s.01-2.986.058-4.041A5.563,5.563,0,0,1,4.205,6.1a3.107,3.107,0,0,1,.748-1.15A3.082,3.082,0,0,1,6.1,4.2,5.523,5.523,0,0,1,7.96,3.86C9.014,3.811,9.331,3.8,12,3.8s2.986.01,4.041.058A5.564,5.564,0,0,1,17.9,4.2a3.31,3.31,0,0,1,1.9,1.9,5.522,5.522,0,0,1,.344,1.857C20.189,9.014,20.2,9.33,20.2,12s-.01,2.986-.058,4.041Z" transform="translate(421.685 2206)" fill="#011553"/>
  </g>
</svg>
