<svg xmlns="http://www.w3.org/2000/svg" width="24.609" height="20" viewBox="0 0 24.609 20">
  <g id="Group_139734" data-name="Group 139734" transform="translate(-499.193 -2208)">
    <path id="Brand_Logos" data-name="Brand Logos" d="M26.609,6.239a10.08,10.08,0,0,1-2.9.8,5.063,5.063,0,0,0,2.22-2.793,10.086,10.086,0,0,1-3.207,1.225A5.051,5.051,0,0,0,13.99,8.921a5.106,5.106,0,0,0,.13,1.151A14.334,14.334,0,0,1,3.715,4.8a5.053,5.053,0,0,0,1.562,6.74,5.025,5.025,0,0,1-2.287-.631v.064a5.05,5.05,0,0,0,4.049,4.95,5.022,5.022,0,0,1-1.329.177,5.125,5.125,0,0,1-.95-.089,5.055,5.055,0,0,0,4.715,3.506A10.165,10.165,0,0,1,2,21.6a14.287,14.287,0,0,0,7.739,2.269A14.266,14.266,0,0,0,24.1,9.509q0-.329-.015-.653a10.286,10.286,0,0,0,2.522-2.617Z" transform="translate(497.193 2204.127)" fill="#011553"/>
  </g>
</svg>
