<svg id="search-interface-symbol" xmlns="http://www.w3.org/2000/svg" width="22" height="22" viewBox="0 0 22 22">
  <g id="_x34__4_" transform="translate(0)">
    <g id="Group_139619" data-name="Group 139619">
      <path id="Path_34159" data-name="Path 34159" d="M21.8,20.8l-5.68-5.589a8.984,8.984,0,0,0,2.4-6.105A9.184,9.184,0,0,0,9.262,0,9.183,9.183,0,0,0,.006,9.109a9.183,9.183,0,0,0,9.256,9.109,9.309,9.309,0,0,0,5.826-2.034l5.7,5.611a.72.72,0,0,0,1.007,0A.693.693,0,0,0,21.8,20.8ZM9.262,16.816A7.77,7.77,0,0,1,1.43,9.109,7.77,7.77,0,0,1,9.262,1.4a7.77,7.77,0,0,1,7.832,7.707A7.77,7.77,0,0,1,9.262,16.816Z" transform="translate(-0.006)"/>
    </g>
  </g>
</svg>
