<svg xmlns="http://www.w3.org/2000/svg" xmlns:xlink="http://www.w3.org/1999/xlink" width="28.258" height="28.582" viewBox="0 0 28.258 28.582">
  <defs>
    <linearGradient id="linear-gradient" x1="0.146" y1="0.146" x2="0.854" y2="0.854" gradientUnits="objectBoundingBox">
      <stop offset="0" stop-color="#fae100"/>
      <stop offset="0.15" stop-color="#fcb720"/>
      <stop offset="0.3" stop-color="#ff7950"/>
      <stop offset="0.5" stop-color="#ff1c74"/>
      <stop offset="1" stop-color="#6c1cd1"/>
    </linearGradient>
  </defs>
  <g id="Layer_2" data-name="Layer 2" transform="translate(0)">
    <g id="Circle" transform="translate(0 0)">
      <g id="_03.Instagram" data-name="03.Instagram" transform="translate(0 0)">
        <rect id="Background" width="28.258" height="28.257" rx="14.129" transform="translate(0.001 0.325)" fill="url(#linear-gradient)"/>
        <g id="Group_139977" data-name="Group 139977">
          <path id="Shade" d="M25.06,4.889a50.952,50.952,0,0,1-8.712,11.452A51.02,51.02,0,0,1,4.9,25.047q-.359-.312-.7-.651A14.29,14.29,0,1,1,24.411,4.184q.336.341.649.7Z" transform="translate(-0.016 0)" fill="#fff" opacity="0.1"/>
          <g id="Icon" transform="translate(6.767 6.769)">
            <path id="Path_34240" data-name="Path 34240" d="M46.906,36h-6.77A4.137,4.137,0,0,0,36,40.137v6.77a4.137,4.137,0,0,0,4.137,4.137h6.77a4.137,4.137,0,0,0,4.137-4.137v-6.77A4.137,4.137,0,0,0,46.906,36Zm2.821,10.312a3.415,3.415,0,0,1-3.415,3.415H40.731a3.415,3.415,0,0,1-3.415-3.415V40.731a3.415,3.415,0,0,1,3.415-3.415h5.581a3.415,3.415,0,0,1,3.415,3.415Z" transform="translate(-36 -36)" fill="#fff"/>
            <path id="Path_34241" data-name="Path 34241" d="M62.2,56.5l-.036-.036-.03-.03a3.791,3.791,0,0,0-2.678-1.106,3.859,3.859,0,0,0-3.832,3.887,3.9,3.9,0,0,0,1.128,2.747,3.8,3.8,0,0,0,2.712,1.128A3.9,3.9,0,0,0,62.2,56.5Zm-2.744,5.265a2.55,2.55,0,1,1,2.514-2.55A2.55,2.55,0,0,1,59.452,61.767Z" transform="translate(-51.93 -51.695)" fill="#fff"/>
            <path id="Path_34242" data-name="Path 34242" d="M94.563,50.4a.918.918,0,0,1-.912.925.9.9,0,0,1-.643-.269.927.927,0,0,1,.645-1.578.907.907,0,0,1,.581.211l.019.019a.574.574,0,0,1,.083.083l.021.023A.925.925,0,0,1,94.563,50.4Z" transform="translate(-82.071 -46.945)" fill="#fff"/>
          </g>
        </g>
      </g>
    </g>
  </g>
</svg>
