<svg id="d56a83daff855ba754852b04aa0f3926" xmlns="http://www.w3.org/2000/svg" width="19.864" height="20.269" viewBox="0 0 19.864 20.269">
  <path id="Path_34244" data-name="Path 34244" d="M140.279,108.833a8.685,8.685,0,0,0-.214-2.072H130.55v3.761h5.585a4.953,4.953,0,0,1-2.072,3.288l-.019.126,3.009,2.331.208.021a9.909,9.909,0,0,0,3.018-7.455" transform="translate(-120.415 -98.473)" fill="#4285f4"/>
  <path id="Path_34245" data-name="Path 34245" d="M22.979,164.5a9.66,9.66,0,0,0,6.711-2.455l-3.2-2.477a6,6,0,0,1-3.513,1.013,6.1,6.1,0,0,1-5.765-4.211l-.119.01L13.966,158.8l-.041.114a10.127,10.127,0,0,0,9.054,5.585" transform="translate(-12.844 -144.231)" fill="#34a853"/>
  <path id="Path_34246" data-name="Path 34246" d="M4.369,77.915a6.239,6.239,0,0,1-.338-2,6.556,6.556,0,0,1,.327-2l-.006-.134-3.168-2.46-.1.049a10.113,10.113,0,0,0,0,9.1l3.288-2.545" transform="translate(0 -65.776)" fill="#fbbc05"/>
  <path id="Path_34247" data-name="Path 34247" d="M22.979,3.919A5.617,5.617,0,0,1,26.9,5.428l2.86-2.793A9.737,9.737,0,0,0,22.979,0a10.127,10.127,0,0,0-9.054,5.585L17.2,8.13a6.126,6.126,0,0,1,5.777-4.211" transform="translate(-12.844)" fill="#eb4335"/>
</svg>
