<svg xmlns="http://www.w3.org/2000/svg" width="51.25" height="40" viewBox="0 0 51.25 40">
  <g id="Group_140413" data-name="Group 140413" transform="translate(205.25 -1801)">
    <circle id="Ellipse_6" data-name="Ellipse 6" cx="20" cy="20" r="20" transform="translate(-194 1801)" fill="#fff" opacity="0.1"/>
    <g id="Group_46269" data-name="Group 46269" transform="translate(-205 1806)">
      <path id="Path_13088" data-name="Path 13088" d="M-794.816-714.894c0,.241.01.45,0,.658a.444.444,0,0,1-.475.465q-2.637.009-5.273,0a.457.457,0,0,1-.494-.485c-.006-.094,0-.189,0-.283q0-5.063,0-10.126c0-.639.125-.765.762-.766h4.707c.663,0,.782.119.784.78,0,.138,0,.277,0,.458h.419c1.64,0,3.28.007,4.919,0a7.557,7.557,0,0,1,5.384,2.119.749.749,0,0,0,.465.172c1.215.014,2.432.056,3.645,0a2.449,2.449,0,0,1,2.8,2.561c.648-.235,1.28-.473,1.918-.693a33.809,33.809,0,0,1,3.242-1.081,5.2,5.2,0,0,1,4.568,1.136c.13.1.252.213.377.322.452.393.416.741-.11,1.013q-1.46.752-2.924,1.5-4.324,2.21-8.648,4.417a10.452,10.452,0,0,1-8.687.5c-2.352-.864-4.708-1.716-7.063-2.572C-794.6-714.835-794.687-714.856-794.816-714.894Zm.005-8.286v.418c0,2.136.006,4.273-.007,6.409a.466.466,0,0,0,.365.528c2.48.888,4.953,1.8,7.432,2.69a9.425,9.425,0,0,0,7.768-.464q5.4-2.748,10.792-5.512c.089-.045.173-.1.295-.167-.126-.093-.214-.168-.311-.23a4.469,4.469,0,0,0-4.091-.458c-1.673.6-3.34,1.21-5.008,1.82a1,1,0,0,0-.337.184,2.515,2.515,0,0,1-1.814.649c-2.584-.009-5.168,0-7.751,0a2.644,2.644,0,0,1-.318-.005.485.485,0,0,1-.461-.526.456.456,0,0,1,.486-.457c.118,0,.236,0,.354,0q3.893,0,7.787,0a1.3,1.3,0,0,0,1.384-1.579,1.3,1.3,0,0,0-1.389-1.01c-1.416-.006-2.832-.008-4.247,0a.993.993,0,0,1-.776-.328,6.32,6.32,0,0,0-4.582-1.971c-1.758-.018-3.516-.006-5.274-.006C-794.6-723.2-794.679-723.189-794.811-723.18Zm-1.021,8.414v-9.639h-4.214v9.639Z" transform="translate(801.065 741.52)" fill="#fff" stroke="#fff" stroke-width="0.5"/>
      <path id="Path_13089" data-name="Path 13089" d="M-645.619-886.759a8.725,8.725,0,0,1-8.814,8.713,8.747,8.747,0,0,1-8.669-8.835,8.779,8.779,0,0,1,8.828-8.655A8.745,8.745,0,0,1-645.619-886.759Zm-8.731,7.72a7.738,7.738,0,0,0,7.742-7.623,7.761,7.761,0,0,0-7.746-7.881,7.786,7.786,0,0,0-7.751,7.672A7.75,7.75,0,0,0-654.35-879.039Z" transform="translate(676.15 895.536)" fill="#fff" stroke="#fff" stroke-width="0.5"/>
      <path id="Path_13090" data-name="Path 13090" d="M-596.6-861.666c0,1.144-.007,2.24.014,3.335,0,.085.182.208.3.243a2.705,2.705,0,0,1,1.351,4.306,2.766,2.766,0,0,1-1.632.957c-.093.666-.219.853-.556.842-.317-.01-.413-.169-.5-.846a2.554,2.554,0,0,1-1.7-1.087,4.574,4.574,0,0,1-.514-1.329c-.107-.446.071-.69.394-.725.35-.038.551.172.569.636a1.71,1.71,0,0,0,.713,1.359,4.969,4.969,0,0,0,.573.318v-1.862c0-.484-.009-.968,0-1.451a.307.307,0,0,0-.247-.353,2.643,2.643,0,0,1-1.869-2.59,2.65,2.65,0,0,1,1.861-2.525.307.307,0,0,0,.256-.343c0-.4.176-.611.473-.617s.5.215.506.6c0,.216.094.272.275.325a2.665,2.665,0,0,1,1.991,2.282,1.352,1.352,0,0,1,.012.247.52.52,0,0,1-.5.567.512.512,0,0,1-.482-.546,1.8,1.8,0,0,0-1.058-1.665A2.143,2.143,0,0,0-596.6-861.666Zm-1.008.036a1.665,1.665,0,0,0-1.268,1.778,1.6,1.6,0,0,0,1.268,1.53Zm1.035,4.554v3.361a1.766,1.766,0,0,0,1.258-1.71A1.737,1.737,0,0,0-596.576-857.077Z" transform="translate(618.906 866.438)" fill="#fff" stroke="#fff" stroke-width="0.5"/>
    </g>
  </g>
</svg>
